<svg width="132" height="40" viewBox="0 0 132 40" fill="none" xmlns="http://www.w3.org/2000/svg">
<rect x="0.5" y="0.5" width="131" height="39" stroke="#212121"/>
<path d="M11.25 10.7885V29.2104C11.2501 29.2503 11.262 29.2894 11.2843 29.3226C11.3065 29.3558 11.338 29.3817 11.3749 29.3971C11.4118 29.4125 11.4524 29.4166 11.4917 29.409C11.5309 29.4014 11.567 29.3823 11.5955 29.3543L21.1875 19.9999L11.5955 10.6446C11.567 10.6165 11.5309 10.5975 11.4917 10.5899C11.4524 10.5823 11.4118 10.5864 11.3749 10.6018C11.338 10.6171 11.3065 10.643 11.2843 10.6763C11.262 10.7095 11.2501 10.7485 11.25 10.7885ZM25.2094 16.1561L13.1822 9.5299L13.1747 9.52568C12.9675 9.41318 12.7706 9.69349 12.9403 9.85661L22.3683 18.8716L25.2094 16.1561ZM12.9412 30.1432C12.7706 30.3063 12.9675 30.5866 13.1756 30.4741L13.1831 30.4699L25.2094 23.8436L22.3683 21.1272L12.9412 30.1432ZM30.0647 18.828L26.7061 16.9783L23.5481 19.9999L26.7061 23.0201L30.0647 21.1718C30.9783 20.6669 30.9783 19.3329 30.0647 18.828Z" fill="#212121"/>
<path d="M42.2969 9.85653H45.1049C45.1209 9.92053 45.1342 9.99786 45.1449 10.0885C45.1555 10.1792 45.1609 10.2699 45.1609 10.3605C45.1609 10.7285 45.1049 11.0752 44.9929 11.4005C44.8809 11.7259 44.7049 12.0165 44.4649 12.2725C44.2089 12.5445 43.9022 12.7552 43.5449 12.9045C43.1875 13.0539 42.7795 13.1285 42.3209 13.1285C41.9049 13.1285 41.5129 13.0539 41.1449 12.9045C40.7769 12.7552 40.4569 12.5472 40.1849 12.2805C39.9129 12.0139 39.6969 11.6992 39.5369 11.3365C39.3769 10.9685 39.2969 10.5685 39.2969 10.1365C39.2969 9.70453 39.3769 9.3072 39.5369 8.94453C39.6969 8.57653 39.9129 8.2592 40.1849 7.99253C40.4569 7.72586 40.7769 7.51786 41.1449 7.36853C41.5129 7.2192 41.9049 7.14453 42.3209 7.14453C42.7849 7.14453 43.1982 7.22453 43.5609 7.38453C43.9289 7.54453 44.2435 7.76586 44.5049 8.04853L43.7609 8.77653C43.5742 8.5792 43.3662 8.42986 43.1369 8.32853C42.9075 8.22186 42.6329 8.16853 42.3129 8.16853C42.0515 8.16853 41.8035 8.21653 41.5689 8.31253C41.3342 8.4032 41.1289 8.53386 40.9529 8.70453C40.7769 8.8752 40.6355 9.0832 40.5289 9.32853C40.4275 9.56853 40.3769 9.83786 40.3769 10.1365C40.3769 10.4352 40.4275 10.7072 40.5289 10.9525C40.6355 11.1925 40.7769 11.3979 40.9529 11.5685C41.1342 11.7392 41.3422 11.8725 41.5769 11.9685C41.8115 12.0592 42.0622 12.1045 42.3289 12.1045C42.6329 12.1045 42.8889 12.0619 43.0969 11.9765C43.3102 11.8859 43.4915 11.7712 43.6409 11.6325C43.7475 11.5365 43.8382 11.4165 43.9129 11.2725C43.9929 11.1232 44.0542 10.9579 44.0969 10.7765H42.2969V9.85653Z" fill="#212121"/>
<path d="M47.2134 8.29653V9.62453H49.5094V10.6485H47.2134V11.9765H49.7654V13.0005H46.1334V7.27253H49.7654V8.29653H47.2134Z" fill="#212121"/>
<path d="M52.0544 13.0005V8.29653H50.4544V7.27253H54.7344V8.29653H53.1344V13.0005H52.0544Z" fill="#212121"/>
<path d="M57.4203 7.27253H58.5003V13.0005H57.4203V7.27253Z" fill="#212121"/>
<path d="M60.9507 13.0005V8.29653H59.3507V7.27253H63.6307V8.29653H62.0307V13.0005H60.9507Z" fill="#212121"/>
<path d="M68.8723 13.1285C68.4456 13.1285 68.0483 13.0512 67.6803 12.8965C67.3176 12.7419 67.003 12.5312 66.7363 12.2645C66.4696 11.9925 66.259 11.6752 66.1043 11.3125C65.955 10.9445 65.8803 10.5525 65.8803 10.1365C65.8803 9.72053 65.955 9.3312 66.1043 8.96853C66.259 8.60053 66.4696 8.2832 66.7363 8.01653C67.003 7.74453 67.3176 7.5312 67.6803 7.37653C68.0483 7.22186 68.4456 7.14453 68.8723 7.14453C69.299 7.14453 69.6936 7.22186 70.0563 7.37653C70.4243 7.5312 70.7416 7.74453 71.0083 8.01653C71.275 8.2832 71.483 8.60053 71.6323 8.96853C71.787 9.3312 71.8643 9.72053 71.8643 10.1365C71.8643 10.5525 71.787 10.9445 71.6323 11.3125C71.483 11.6752 71.275 11.9925 71.0083 12.2645C70.7416 12.5312 70.4243 12.7419 70.0563 12.8965C69.6936 13.0512 69.299 13.1285 68.8723 13.1285ZM68.8723 12.1045C69.139 12.1045 69.387 12.0565 69.6163 11.9605C69.851 11.8645 70.0536 11.7312 70.2243 11.5605C70.4003 11.3899 70.5363 11.1845 70.6323 10.9445C70.7336 10.6992 70.7843 10.4299 70.7843 10.1365C70.7843 9.8432 70.7336 9.57653 70.6323 9.33653C70.5363 9.0912 70.4003 8.8832 70.2243 8.71253C70.0536 8.54186 69.851 8.40853 69.6163 8.31253C69.387 8.21653 69.139 8.16853 68.8723 8.16853C68.6056 8.16853 68.355 8.21653 68.1203 8.31253C67.891 8.40853 67.6883 8.54186 67.5123 8.71253C67.3416 8.8832 67.2056 9.0912 67.1043 9.33653C67.0083 9.57653 66.9603 9.8432 66.9603 10.1365C66.9603 10.4299 67.0083 10.6992 67.1043 10.9445C67.2056 11.1845 67.3416 11.3899 67.5123 11.5605C67.6883 11.7312 67.891 11.8645 68.1203 11.9605C68.355 12.0565 68.6056 12.1045 68.8723 12.1045Z" fill="#212121"/>
<path d="M72.8184 7.27253H74.0744L76.3784 11.1125H76.4424L76.3784 10.0085V7.27253H77.4504V13.0005H76.3144L73.8824 8.94453H73.8184L73.8824 10.0485V13.0005H72.8184V7.27253Z" fill="#212121"/>
<g clip-path="url(#clip0_346_294)">
<path d="M61.1324 25.2254C61.1324 27.6667 59.2225 29.4657 56.8787 29.4657C54.5349 29.4657 52.625 27.6667 52.625 25.2254C52.625 22.7669 54.5349 20.9851 56.8787 20.9851C59.2225 20.9851 61.1324 22.7669 61.1324 25.2254ZM59.2703 25.2254C59.2703 23.6998 58.1634 22.656 56.8787 22.656C55.594 22.656 54.4871 23.6998 54.4871 25.2254C54.4871 26.7357 55.594 27.7948 56.8787 27.7948C58.1634 27.7948 59.2703 26.7338 59.2703 25.2254Z" fill="#212121"/>
<path d="M70.3042 25.2254C70.3042 27.6667 68.3944 29.4657 66.0506 29.4657C63.7067 29.4657 61.7969 27.6667 61.7969 25.2254C61.7969 22.7688 63.7067 20.9851 66.0506 20.9851C68.3944 20.9851 70.3042 22.7669 70.3042 25.2254ZM68.4422 25.2254C68.4422 23.6998 67.3353 22.656 66.0506 22.656C64.7658 22.656 63.6589 23.6998 63.6589 25.2254C63.6589 26.7357 64.7658 27.7948 66.0506 27.7948C67.3353 27.7948 68.4422 26.7338 68.4422 25.2254Z" fill="#212121"/>
<path d="M79.0976 21.2413V28.8539C79.0976 31.9854 77.2508 33.2644 75.0676 33.2644C73.0124 33.2644 71.7755 31.8898 71.309 30.7657L72.9302 30.0908C73.2189 30.781 73.9263 31.5954 75.0657 31.5954C76.4632 31.5954 77.3292 30.7332 77.3292 29.1101V28.5003H77.2642C76.8474 29.0145 76.0445 29.4638 75.0312 29.4638C72.9111 29.4638 70.9688 27.617 70.9688 25.2407C70.9688 22.8472 72.9111 20.9851 75.0312 20.9851C76.0426 20.9851 76.8455 21.4344 77.2642 21.9333H77.3292V21.2432H79.0976V21.2413ZM77.4611 25.2407C77.4611 23.7476 76.4651 22.656 75.1976 22.656C73.9129 22.656 72.8365 23.7476 72.8365 25.2407C72.8365 26.7185 73.9129 27.7948 75.1976 27.7948C76.4651 27.7948 77.4611 26.7185 77.4611 25.2407Z" fill="#212121"/>
<path d="M82.0193 16.78V29.2065H80.2031V16.78H82.0193Z" fill="#212121"/>
<path d="M89.0923 26.6209L90.5376 27.5845C90.0711 28.2746 88.947 29.4637 87.0047 29.4637C84.5958 29.4637 82.7969 27.6017 82.7969 25.2234C82.7969 22.7018 84.6111 20.9832 86.7963 20.9832C88.9967 20.9832 90.0731 22.7343 90.4248 23.6807L90.6179 24.1624L84.9495 26.5101C85.3835 27.3608 86.0583 27.7948 87.0047 27.7948C87.9529 27.7948 88.6105 27.3283 89.0923 26.6209ZM84.6436 25.0954L88.4328 23.522C88.2244 22.9924 87.5973 22.6234 86.8594 22.6234C85.9131 22.6234 84.5958 23.4589 84.6436 25.0954Z" fill="#212121"/>
<path d="M45.7481 24.1224V22.3234H51.8103C51.8696 22.637 51.9002 23.0079 51.9002 23.4093C51.9002 24.759 51.5312 26.428 50.3421 27.6171C49.1855 28.8215 47.7077 29.4639 45.75 29.4639C42.1215 29.4639 39.0703 26.5083 39.0703 22.8798C39.0703 19.2512 42.1215 16.2957 45.75 16.2957C47.7574 16.2957 49.1874 17.0833 50.2618 18.1099L48.9924 19.3793C48.2219 18.6567 47.1781 18.0946 45.7481 18.0946C43.0984 18.0946 41.026 20.2301 41.026 22.8798C41.026 25.5295 43.0984 27.6649 45.7481 27.6649C47.4668 27.6649 48.4456 26.9748 49.0727 26.3477C49.5812 25.8392 49.9158 25.1127 50.0477 24.1205L45.7481 24.1224Z" fill="#212121"/>
</g>
<path d="M94.2266 29.0001V16.8281H98.4426C98.9866 16.8281 99.4966 16.9188 99.9726 17.1001C100.46 17.2815 100.885 17.5365 101.248 17.8651C101.61 18.1938 101.894 18.5905 102.098 19.0551C102.313 19.5085 102.421 20.0128 102.421 20.5681C102.421 21.1121 102.313 21.6165 102.098 22.0811C101.894 22.5345 101.61 22.9255 101.248 23.2541C100.885 23.5828 100.46 23.8378 99.9726 24.0191C99.4966 24.2005 98.9866 24.2911 98.4426 24.2911H96.1476V29.0001H94.2266ZM98.4936 22.4551C98.8109 22.4551 99.0942 22.4041 99.3436 22.3021C99.5929 22.1888 99.8026 22.0415 99.9726 21.8601C100.143 21.6788 100.273 21.4748 100.364 21.2481C100.454 21.0215 100.5 20.7948 100.5 20.5681C100.5 20.3301 100.454 20.0978 100.364 19.8711C100.273 19.6445 100.143 19.4461 99.9726 19.2761C99.8026 19.0948 99.5929 18.9475 99.3436 18.8341C99.0942 18.7208 98.8109 18.6641 98.4936 18.6641H96.1476V22.4551H98.4936Z" fill="#212121"/>
<path d="M103.016 29.0001V16.8281H104.903V29.0001H103.016Z" fill="#212121"/>
<path d="M111.138 27.9801H111.036C110.787 28.3088 110.464 28.6091 110.067 28.8811C109.67 29.1418 109.166 29.2721 108.554 29.2721C108.112 29.2721 107.698 29.1985 107.313 29.0511C106.928 28.9151 106.593 28.7225 106.31 28.4731C106.027 28.2125 105.8 27.9121 105.63 27.5721C105.471 27.2208 105.392 26.8355 105.392 26.4161C105.392 25.9741 105.477 25.5775 105.647 25.2261C105.828 24.8748 106.072 24.5801 106.378 24.3421C106.695 24.1041 107.069 23.9228 107.5 23.7981C107.931 23.6621 108.395 23.5941 108.894 23.5941C109.449 23.5941 109.914 23.6508 110.288 23.7641C110.662 23.8661 110.945 23.9625 111.138 24.0531V23.7301C111.138 23.4808 111.081 23.2485 110.968 23.0331C110.866 22.8178 110.719 22.6365 110.526 22.4891C110.345 22.3305 110.135 22.2115 109.897 22.1321C109.659 22.0415 109.41 21.9961 109.149 21.9961C108.73 21.9961 108.35 22.0811 108.01 22.2511C107.681 22.4098 107.387 22.6705 107.126 23.0331L105.63 22.0471C106.027 21.5031 106.52 21.0951 107.109 20.8231C107.698 20.5398 108.367 20.3981 109.115 20.3981C110.35 20.3981 111.302 20.7041 111.971 21.3161C112.651 21.9281 112.991 22.8008 112.991 23.9341V29.0001H111.138V27.9801ZM111.138 25.5321C110.889 25.3848 110.611 25.2658 110.305 25.1751C109.999 25.0845 109.648 25.0391 109.251 25.0391C108.662 25.0391 108.191 25.1751 107.84 25.4471C107.489 25.7191 107.313 26.0478 107.313 26.4331C107.313 26.6371 107.358 26.8185 107.449 26.9771C107.54 27.1245 107.653 27.2548 107.789 27.3681C107.936 27.4815 108.101 27.5665 108.282 27.6231C108.475 27.6798 108.667 27.7081 108.86 27.7081C109.166 27.7081 109.455 27.6515 109.727 27.5381C110.01 27.4135 110.254 27.2548 110.458 27.0621C110.662 26.8581 110.826 26.6258 110.951 26.3651C111.076 26.1045 111.138 25.8268 111.138 25.5321Z" fill="#212121"/>
<path d="M116.334 28.5241L112.866 20.6701H114.974L117.269 26.1951H117.354L119.581 20.6701H121.672L116.453 32.6721H114.447L116.334 28.5241Z" fill="#212121"/>
<defs>
<clipPath id="clip0_346_294">
<rect width="52" height="17.5882" fill="white" transform="translate(39 16.2058)"/>
</clipPath>
</defs>
</svg>
