<svg width="20" height="20" viewBox="0 0 20 20" fill="none" xmlns="http://www.w3.org/2000/svg">
<g clip-path="url(#clip0_1147_7897)">
<g clip-path="url(#clip1_1147_7897)">
<path d="M18.125 14.9129H16.875C16.875 15.0546 16.847 15.1949 16.7926 15.3257C16.7382 15.4566 16.6584 15.5753 16.5579 15.6752C16.4574 15.7752 16.3382 15.8542 16.2071 15.9079C16.0759 15.9615 15.9354 15.9887 15.7938 15.9879C15.075 15.9879 14.6563 15.4504 14.1813 14.7379C15.1058 14.1055 15.8619 13.2568 16.3837 12.2655C16.9054 11.2743 17.1771 10.1706 17.175 9.05039C17.2312 4.55664 13.5188 1.61914 9.56875 1.61914C5.61875 1.61914 1.875 4.60664 1.875 8.98164C1.875 13.3566 5.625 16.3504 9.48125 16.3504C10.132 16.3442 10.7784 16.2431 11.4 16.0504C12.1187 17.3691 13.0188 18.3879 14.8125 18.3879C15.2695 18.4184 15.7277 18.348 16.1545 18.1818C16.5813 18.0156 16.9664 17.7576 17.2824 17.426C17.5985 17.0945 17.8377 16.6975 17.9834 16.2632C18.129 15.8289 18.1773 15.3679 18.125 14.9129ZM13.0375 12.7566C12.6868 12.1477 12.1797 11.6435 11.5687 11.2963C10.9578 10.9491 10.2652 10.7714 9.5625 10.7816C8.72491 10.7533 7.90196 11.0063 7.225 11.5004L7.625 12.5004C7.79932 12.4492 7.98108 12.4281 8.1625 12.4379C9.3 12.4379 10.0375 13.3941 10.7375 14.7129C10.3462 14.8029 9.94509 14.8428 9.54375 14.8316C6.7875 14.8504 5.625 12.8754 5.625 9.04414C5.625 5.21289 6.81875 3.23164 9.51875 3.23164C12.2187 3.23164 13.4687 5.20664 13.4687 9.04414C13.4995 10.2969 13.3479 11.5475 13.0187 12.7566H13.0375Z" fill="#121212"/>
</g>
</g>
<defs>
<clipPath id="clip0_1147_7897">
<rect width="20" height="20" fill="white"/>
</clipPath>
<clipPath id="clip1_1147_7897">
<rect width="20" height="20" fill="white"/>
</clipPath>
</defs>
</svg>
