<svg width="72" height="72" viewBox="0 0 72 72" fill="none" xmlns="http://www.w3.org/2000/svg">
<path fill-rule="evenodd" clip-rule="evenodd" d="M2.06311 1.80589C2.06311 1.89781 1.96854 1.9978 1.85294 2.02792C1.64477 2.08227 1.64277 2.17104 1.64277 11.4615V20.8401H11.2582H20.8736V11.2394V1.63864H11.4683C2.9326 1.63864 2.06311 1.65407 2.06311 1.80589ZM26.4431 4.41918V7.19973H25.1944C23.9881 7.19973 23.9434 7.20781 23.8822 7.43581C23.7994 7.7445 23.7975 9.65259 23.8798 9.86674C23.9329 10.0052 24.1507 10.0327 25.1933 10.0327H26.4431V12.6559V15.279H27.7567C28.8542 15.279 29.0703 15.305 29.0703 15.4364C29.0703 15.523 29.1412 15.5938 29.2279 15.5938C29.3638 15.5938 29.3855 15.9552 29.3855 18.217V20.8401H30.6466H31.9076V21.9812C31.9076 22.6088 31.9371 23.2698 31.9733 23.4502L32.039 23.7781H33.3394H34.6399V27.6517C34.6399 29.7822 34.6112 31.6001 34.5761 31.6914C34.5229 31.8298 34.3063 31.8574 33.2748 31.8574C31.8174 31.8574 31.9113 31.9601 31.9091 30.3622L31.9076 29.3391H30.6466H29.3855V27.8702V26.4012H27.9143H26.4431V22.3091V18.217H25.1295H23.816V20.9975V23.7781H18.2989H12.7819V25.0896V26.4012H11.4683H10.1548V25.0896V23.7781L6.13521 23.7795C3.9244 23.7803 2.00931 23.8094 1.87921 23.8442L1.64277 23.9074V26.4135C1.64277 28.5711 1.66473 28.9194 1.8004 28.9194C1.88794 28.9194 1.95803 29.0127 1.95803 29.1293C1.95803 29.3279 2.02812 29.3391 3.27161 29.3391H4.58518V30.5983V31.8574H3.44237C2.81385 31.8574 2.15181 31.8869 1.97116 31.923L1.64277 31.9885V33.2345C1.64277 34.4105 1.65454 34.4805 1.85294 34.4805C1.96969 34.4805 2.06311 34.5505 2.06311 34.6379C2.06311 34.7673 2.24996 34.7953 3.11398 34.7953C3.74449 34.7953 4.16484 34.7533 4.16484 34.6904C4.16484 34.6327 4.25805 34.5855 4.37186 34.5855C4.56553 34.5855 4.58077 34.4988 4.6083 33.2476L4.63773 31.9098H5.89876H7.1598L7.18786 34.6641L7.21581 37.4185H5.90055H4.58518V38.73V40.0416H3.27161C2.02812 40.0416 1.95803 40.0528 1.95803 40.2515C1.95803 40.368 1.88794 40.4613 1.8004 40.4613C1.67093 40.4613 1.64277 40.6465 1.64277 41.4983C1.64277 42.7357 1.53369 42.6612 3.35042 42.6633L4.58518 42.6648V44.1337V45.6027H3.11398H1.64277V46.8495C1.64277 48.3298 1.5092 48.2223 3.35042 48.2244L4.58518 48.2259V46.9143V45.6027H5.89876H7.21234V46.8571V48.1114L7.55387 48.173C7.74166 48.2069 8.98304 48.2208 10.3124 48.204L12.7294 48.1734L12.7589 46.888L12.7884 45.6027H15.5142H18.2399L18.2694 46.888L18.2989 48.1734L19.5862 48.2029L20.8736 48.2324V46.9175V45.6027H19.56H18.2464V44.1337V42.6648H21.0312H23.816V40.0416V37.4185H25.0647C26.5384 37.4185 26.4394 37.5297 26.4417 35.8708L26.4431 34.7953H27.5859C28.2145 34.7953 28.8765 34.8248 29.0571 34.8609L29.3855 34.9265V37.484V40.0416H27.9143H26.4431V42.8222V45.6027H27.9143H29.3855V46.9143V48.2259H26.6008H23.816V53.7345V59.2431H25.1295H26.4431V60.5547V61.8663H25.1944C23.9881 61.8663 23.9434 61.8743 23.8822 62.1023C23.7995 62.4104 23.7995 69.8211 23.8822 70.1292C23.9434 70.3572 23.9881 70.3653 25.1944 70.3653H26.4431V67.5847V64.8042H27.9143H29.3855V66.1158V67.4273H30.6466H31.9076V68.5684C31.9076 69.196 31.9371 69.857 31.9733 70.0374L32.039 70.3653H36.0717H40.1043V68.8963V67.4273H41.4179H42.7315V68.7389C42.7315 69.8348 42.7575 70.0505 42.8891 70.0505C42.9758 70.0505 43.0468 70.1213 43.0468 70.2079C43.0468 70.3434 43.4014 70.3653 45.6082 70.3653H48.1697L48.2354 70.0374C48.2715 69.857 48.3011 68.0156 48.3011 65.9453C48.3011 62.6693 48.3216 62.181 48.4587 62.181C48.5454 62.181 48.6163 62.1102 48.6163 62.0236C48.6163 61.8922 48.8324 61.8663 49.9299 61.8663H51.2435V60.5547V59.2431H52.5045H53.7656V60.5547V61.8663H55.0791C56.1767 61.8663 56.3927 61.8922 56.3927 62.0236C56.3927 62.1102 56.4636 62.181 56.5503 62.181C56.6862 62.181 56.708 62.5424 56.708 64.8042V67.4273H55.2368H53.7656V66.1158V64.8042H52.5045H51.2435V66.1158V67.4273H52.5045H53.7656V68.6963C53.7656 69.8769 53.7802 69.9691 53.9757 70.0201C54.0913 70.0503 54.1859 70.1403 54.1859 70.2202C54.1859 70.3345 54.4199 70.3653 55.2893 70.3653C56.2001 70.3653 56.3927 70.3378 56.3927 70.2079C56.3927 70.1213 56.4636 70.0505 56.5503 70.0505C56.682 70.0505 56.708 69.8348 56.708 68.7389V67.4273H59.3351H61.9623V66.1158V64.8042H60.6487H59.3351V63.4926C59.3351 62.3968 59.3611 62.181 59.4928 62.181C59.5794 62.181 59.6504 62.1102 59.6504 62.0236C59.6504 61.888 60.0123 61.8663 62.2775 61.8663H64.9047V60.5547V59.2431H66.1534C67.6238 59.2431 67.5282 59.3469 67.5304 57.7479L67.5319 56.7249H68.7929C69.9838 56.7249 70.0539 56.7132 70.0539 56.515C70.0539 56.3984 70.124 56.3052 70.2115 56.3052C70.3488 56.3052 70.3692 55.8038 70.3692 52.4229C70.3692 49.9047 70.3323 48.5406 70.2641 48.5406C70.2063 48.5406 70.159 48.4698 70.159 48.3832C70.159 48.2476 69.7971 48.2259 67.5319 48.2259H64.9047V53.7345V59.2431H63.5911C62.4936 59.2431 62.2775 59.2172 62.2775 59.0857C62.2775 58.9991 62.2066 58.9283 62.1199 58.9283C61.9814 58.9283 61.9623 58.1181 61.9623 52.2655V45.6027H60.6487H59.3351V44.1337V42.6648H58.0215H56.708V41.4179C56.708 39.9375 56.8418 40.0452 54.9985 40.0431L53.7619 40.0416L53.79 37.4447L53.8181 34.8478L55.1054 34.8183C56.1543 34.7943 56.3927 34.7603 56.3927 34.6347C56.3927 34.5499 56.4622 34.4805 56.5471 34.4805C56.6729 34.4805 56.7069 34.2424 56.731 33.1952L56.7605 31.9098L58.0478 31.8804L59.3351 31.8509V30.595V29.3391H56.616H53.8969L53.8312 29.0112C53.7951 28.8309 53.7656 27.5796 53.7656 26.2307V23.7781H51.0351H48.3045L48.2766 21.0237L48.2485 18.2694L46.9612 18.24L45.6739 18.2105V14.1216V10.0327H44.2027H42.7315V8.61801V7.20319L45.49 7.17528L48.2485 7.14726L48.2781 5.86192L48.3076 4.57657H46.9907H45.6739L45.6724 3.34369C45.6703 1.51063 45.7698 1.63864 44.348 1.63864C43.3548 1.63864 43.1518 1.6654 43.1518 1.79603C43.1518 1.88343 43.0584 1.95342 42.9417 1.95342C42.7371 1.95342 42.7315 2.02341 42.7315 4.57657V7.19973H41.5756C40.6181 7.19973 40.4196 7.2268 40.4196 7.35712C40.4196 7.44368 40.3487 7.51451 40.262 7.51451C40.1321 7.51451 40.1043 7.70432 40.1043 8.59294C40.1043 10.0134 40.1248 10.0327 41.6324 10.0327H42.7378L42.7084 11.3705L42.679 12.7084L40.0781 12.7364L37.4772 12.7645V14.0217V15.279H36.1636H34.85V14.1773C34.85 13.2679 34.8225 13.0756 34.6924 13.0756C34.6057 13.0756 34.5348 13.0048 34.5348 12.9182C34.5348 12.7825 34.1786 12.7608 31.9602 12.7608H29.3855V11.3968V10.0327H30.4889C31.1545 10.0327 31.5924 9.99108 31.5924 9.92781C31.5924 9.8701 31.6633 9.82288 31.75 9.82288C31.8789 9.82288 31.9076 9.64367 31.9076 8.8392C31.9076 8.2982 31.9371 7.70799 31.9733 7.52762L32.039 7.19973H33.2967C34.466 7.19973 34.5583 7.18493 34.6094 6.98987C34.6396 6.87446 34.7062 6.78002 34.7572 6.78002C34.8082 6.78002 34.85 5.72268 34.85 4.43041C34.85 2.4387 34.8261 2.07157 34.6924 2.02036C34.6057 1.98721 34.5348 1.88774 34.5348 1.79928C34.5348 1.65784 34.052 1.63864 30.4889 1.63864H26.4431V4.41918ZM51.2435 11.2394V20.8401H60.8063H70.3692V11.3968C70.3692 3.07267 70.3505 1.95342 70.2115 1.95342C70.1249 1.95342 70.0539 1.88259 70.0539 1.79603C70.0539 1.65732 68.9389 1.63864 60.6487 1.63864H51.2435V11.2394ZM18.2464 11.3968V18.217H11.4158H4.58518V11.3968V4.57657H11.4158H18.2464V11.3968ZM67.5304 11.1607C67.5296 14.7819 67.5004 17.851 67.4656 17.9809L67.4023 18.217H60.6487H53.8951L53.8318 17.9809C53.797 17.851 53.7678 14.7819 53.767 11.1607L53.7656 4.57657H60.6487H67.5319L67.5304 11.1607ZM7.5276 7.35712C7.5276 7.44368 7.45667 7.51451 7.36997 7.51451C7.23273 7.51451 7.21234 8.01584 7.21234 11.3968V15.279H11.2582H15.304V11.2394V7.19973H11.4158C8.0297 7.19973 7.5276 7.22008 7.5276 7.35712ZM29.0703 7.35712C29.0703 7.44368 29.1412 7.51451 29.2279 7.51451C29.3593 7.51451 29.3855 7.72436 29.3855 8.77362V10.0327H27.9143H26.4431V8.61623V7.19973H27.7567C28.8542 7.19973 29.0703 7.22564 29.0703 7.35712ZM56.7742 7.43581C56.7394 7.5656 56.7102 9.38356 56.7094 11.4755L56.708 15.279H60.8063H64.9047V11.3968C64.9047 8.01584 64.8843 7.51451 64.7471 7.51451C64.6604 7.51451 64.5894 7.44368 64.5894 7.35712C64.5894 7.22008 64.0887 7.19973 60.7135 7.19973H56.8375L56.7742 7.43581ZM40.1043 18.0596V20.8401H41.4179H42.7315V19.5286V18.217H44.2027H45.6739V19.5286V20.8401H44.2027H42.7315V23.6207V26.4012H44.2027H45.6739V27.8702V29.3391H46.9227C48.4052 29.3391 48.2975 29.4725 48.2996 27.6341L48.3011 26.4012H49.7723H51.2435V29.1293V31.8574L52.2681 31.8588C53.8742 31.861 53.7656 31.7575 53.7656 33.2862V34.5855H52.5045H51.2435V33.2214V31.8574L50.0087 31.8588C48.1751 31.8609 48.3128 31.7495 48.278 33.2591L48.2485 34.533L46.9644 34.5625L45.6802 34.5919L45.6508 33.2509L45.6214 31.9098L44.1764 31.8807L42.7315 31.8515V30.5953V29.3391H41.4828C40.2765 29.3391 40.2318 29.3311 40.1705 29.1031C40.1358 28.9732 40.1065 27.061 40.1058 24.8536L40.1043 20.8401H38.7908H37.4772V22.1517C37.4772 23.2476 37.4512 23.4633 37.3196 23.4633C37.2329 23.4633 37.1619 23.5341 37.1619 23.6207C37.1619 23.751 36.9634 23.7781 36.006 23.7781H34.85V22.3091V20.8401H36.1636H37.4772V18.0596V15.279H38.7908H40.1043V18.0596ZM34.6168 19.5548L34.6464 20.8401H33.277H31.9076V19.8564C31.9076 19.3154 31.9375 18.7238 31.9739 18.5417L32.0402 18.2108L33.3138 18.2401L34.5873 18.2694L34.6168 19.5548ZM61.9623 25.0325V26.2867L62.3038 26.3494C62.4917 26.3837 63.1419 26.3976 63.7487 26.3803L64.8522 26.3488L64.8817 25.0634L64.9112 23.7781H63.4367H61.9623V25.0325ZM7.21234 27.8702V29.3391H8.68355H10.1548V30.5983V31.8574H11.4045C12.4472 31.8574 12.665 31.8299 12.7181 31.6914C12.7532 31.6001 12.7819 30.3725 12.7819 28.9633V26.4012H14.0429H15.304L15.3055 28.8932C15.3062 30.2639 15.3354 31.4914 15.3702 31.6213L15.4336 31.8574H18.1536H20.8736V33.2214V34.5855H19.7701C19.1633 34.5855 18.6667 34.6272 18.6667 34.6781C18.6667 34.7291 18.5722 34.7955 18.4566 34.8257C18.261 34.8767 18.2464 34.9689 18.2464 36.1495V37.4185H19.56H20.8736V38.73V40.0416H19.56H18.2464V41.3532V42.6648H15.5142H12.7819V44.1337V45.6027H9.99713H7.21234V44.1337V42.6648H5.89876H4.58518V41.3532V40.0416H5.89876H7.21234V38.73V37.4185H8.68355H10.1548V34.6379V31.8574H8.68355H7.21234V30.5983V29.3391H5.89876H4.58518V27.8702V26.4012H5.89876H7.21234V27.8702ZM26.4431 27.8702V29.3391H27.9143H29.3855V30.5983V31.8574H27.9143H26.4431V30.5983V29.3391H22.4096H18.376L18.3126 29.1031C18.2778 28.9732 18.2486 28.3121 18.2479 27.6341L18.2464 26.4012H22.3448H26.4431V27.8702ZM67.5319 27.5423C67.5319 28.1698 67.5023 28.8309 67.4662 29.0112L67.4005 29.3391H64.6814H61.9623V30.4409C61.9623 31.3503 61.9898 31.5426 62.1199 31.5426C62.2066 31.5426 62.2775 31.6134 62.2775 31.7C62.2775 31.8287 62.457 31.8574 63.2627 31.8574C63.8045 31.8574 64.3957 31.8869 64.5763 31.923L64.9047 31.9885V34.7002V37.412L66.192 37.4414L67.4793 37.4709L67.5088 38.7563L67.5384 40.0416H64.7503H61.9623L61.9608 37.5496C61.9601 36.1791 61.9309 34.9514 61.8961 34.8215C61.8359 34.5971 61.7818 34.5855 60.8053 34.5855C59.9891 34.5855 59.7656 34.6178 59.7174 34.7428C59.6842 34.8294 59.5846 34.9002 59.496 34.9002C59.3559 34.9002 59.3351 35.2324 59.3351 37.4709V40.0416H60.6487H61.9623V41.3532V42.6648H63.2759C64.3734 42.6648 64.5894 42.6907 64.5894 42.8222C64.5894 42.9087 64.6604 42.9795 64.7471 42.9795C64.8787 42.9795 64.9047 43.1953 64.9047 44.2911V45.6027H66.2183H67.5319V44.1337V42.6648H68.9505H70.3692V38.7825C70.3692 35.4016 70.3488 34.9002 70.2115 34.9002C70.1249 34.9002 70.0539 34.8294 70.0539 34.7428C70.0539 34.6117 69.8438 34.5855 68.7929 34.5855H67.5319V33.2862C67.5319 31.754 67.4157 31.861 69.0819 31.8588C69.9686 31.8576 70.159 31.8296 70.159 31.7C70.159 31.6134 70.2063 31.5426 70.2641 31.5426C70.3312 31.5426 70.3692 30.6158 70.3692 28.9719V26.4012H68.9505H67.5319V27.5423ZM26.42 33.2509L26.4494 34.592L25.159 34.5625L23.8685 34.533L23.8386 33.3327C23.8222 32.6726 23.8331 32.0691 23.8628 31.9916C23.9049 31.8823 24.1946 31.8573 25.1538 31.8802L26.3906 31.9098L26.42 33.2509ZM13.1642 34.7428C13.131 34.8294 13.0314 34.9002 12.9428 34.9002C12.8085 34.9002 12.7819 35.0826 12.7819 36.002C12.7819 37.0337 12.7686 37.1037 12.5717 37.1037C12.455 37.1037 12.3616 37.1737 12.3616 37.2611C12.3616 37.391 12.1689 37.4185 11.2582 37.4185H10.1548V38.73V40.0416H8.68355H7.21234V41.3532V42.6648H8.68355H10.1548V41.3532V40.0416H14.2006H18.2464V38.73V37.4185H16.9854C15.9345 37.4185 15.7243 37.3922 15.7243 37.2611C15.7243 37.1737 15.6309 37.1037 15.5142 37.1037C15.3156 37.1037 15.304 37.0337 15.304 35.8446V34.5855H14.2644C13.4372 34.5855 13.2123 34.6177 13.1642 34.7428ZM37.2407 34.8614C37.4667 34.922 37.4772 34.973 37.4772 36.0142C37.4772 36.9127 37.4495 37.1037 37.3196 37.1037C37.2329 37.1037 37.1619 37.1745 37.1619 37.2611C37.1619 37.3901 36.9774 37.4187 36.1373 37.4199C34.5359 37.4221 34.6399 37.3266 34.6399 38.7948V40.0416H36.0585H37.4772V38.73V37.4185H38.7908H40.1043V36.1725V34.9265L40.4327 34.8609C40.6134 34.8248 41.8665 34.7953 43.2175 34.7953H45.6739V37.4185V40.0416H46.9875H48.3011V38.7271V37.4126L49.746 37.4417L51.1909 37.4709L51.219 40.0678L51.2472 42.6648H53.9775H56.708V44.1337V45.6027H53.9757H51.2435V44.1337V42.6648H49.7723H48.3011V44.1337V45.6027H46.9875H45.6739V46.9143V48.2259H44.2027H42.7315V51.0064V53.7869H44.2027H45.6739V60.6071V67.4273H44.2027H42.7315V66.1158V64.8042H41.4828C40.0002 64.8042 40.1079 64.9375 40.1058 63.0991L40.1043 61.8663H38.7908H37.4772V64.5821V67.298L37.2407 67.3612C37.1106 67.396 36.5195 67.4251 35.9272 67.4259L34.85 67.4273V66.3256C34.85 65.7197 34.8082 65.2239 34.7572 65.2239C34.7062 65.2239 34.6396 65.1295 34.6094 65.014C34.5583 64.819 34.466 64.8042 33.2967 64.8042H32.039L31.9733 64.4763C31.9371 64.2959 31.9076 63.7057 31.9076 63.1647C31.9076 62.3602 31.8789 62.181 31.75 62.181C31.6633 62.181 31.5924 62.1102 31.5924 62.0236C31.5924 61.8937 31.3997 61.8663 30.4889 61.8663H29.3855V60.5547V59.2431H27.9143H26.4431V56.515V53.7869H27.9143H29.3855V51.0064V48.2259H30.6466H31.9076V46.9143V45.6027H30.6466H29.3855V42.8222V40.0416H30.6466H31.9076V37.4884C31.9076 36.0841 31.9391 34.9037 31.9777 34.8653C32.0648 34.7782 36.9165 34.7746 37.2407 34.8614ZM37.4772 44.1337V48.2259H36.1636C34.9201 48.2259 34.85 48.2371 34.85 48.4357C34.85 48.5511 34.8027 48.6456 34.7449 48.6456C34.6768 48.6456 34.6399 49.9527 34.6399 52.3573C34.6399 54.3988 34.6103 56.2166 34.5742 56.397L34.5085 56.7249H33.2737H32.039L31.9733 56.397C31.9371 56.2166 31.9076 55.5556 31.9076 54.928V53.7869H30.6466H29.3855V56.5132V59.2394L31.9864 59.2675L34.5873 59.2956L34.6168 60.5809L34.6464 61.8663H36.0585H37.4707L37.5002 60.5809L37.5297 59.2956L40.1306 59.2675L42.7315 59.2394V56.515V53.7906L40.1306 53.7625L37.5297 53.7345L37.5017 50.9802L37.4737 48.2259H38.789H40.1043V46.9143V45.6027H41.4179H42.7315V44.1337V42.6648H41.4179H40.1043V41.3532V40.0416H38.7908H37.4772V44.1337ZM56.708 52.2655C56.708 55.7864 56.6877 56.3052 56.5503 56.3052C56.4628 56.3052 56.3927 56.3984 56.3927 56.515C56.3927 56.721 56.3231 56.7249 52.5833 56.7234C50.4882 56.7227 48.6676 56.6935 48.5375 56.6588L48.3011 56.5955V52.4106V48.2259H52.5045H56.708V52.2655ZM1.64277 60.5547C1.64277 69.0774 1.65822 69.9456 1.81028 69.9456C1.90233 69.9456 2.00248 70.04 2.03264 70.1554C2.08707 70.3633 2.17598 70.3653 11.4806 70.3653H20.8736V60.7645V51.1638H11.2582H1.64277V60.5547ZM51.2435 52.4754V53.7869H52.5045H53.7656V52.4754V51.1638H52.5045H51.2435V52.4754ZM18.2464 60.6071V67.4273H11.4158H4.58518V60.6071V53.7869H11.4158H18.2464V60.6071ZM7.21234 60.6071C7.21234 63.9881 7.23273 64.4894 7.36997 64.4894C7.45667 64.4894 7.5276 64.5602 7.5276 64.6468C7.5276 64.7838 8.0297 64.8042 11.4158 64.8042H15.304V60.7645V56.7249H11.2582H7.21234V60.6071ZM67.5319 63.3352V64.8042H66.2183H64.9047V67.5847V70.3653H67.4793C69.7212 70.3653 70.0539 70.3445 70.0539 70.2046C70.0539 70.1162 70.1249 70.0167 70.2115 69.9836C70.3377 69.9352 70.3692 69.7052 70.3692 68.8326C70.3692 68.1756 70.3275 67.7421 70.2641 67.7421C70.2063 67.7421 70.159 67.6713 70.159 67.5847C70.159 67.4533 69.9429 67.4273 68.8454 67.4273H67.5319V66.1158V64.8042H68.7929C69.8438 64.8042 70.0539 64.778 70.0539 64.6468C70.0539 64.5602 70.1249 64.4894 70.2115 64.4894C70.3415 64.4894 70.3692 64.2983 70.3692 63.3989C70.3692 62.5263 70.3377 62.2963 70.2115 62.248C70.1249 62.2148 70.0539 62.1153 70.0539 62.0269C70.0539 61.8915 69.8552 61.8663 68.7929 61.8663H67.5319V63.3352Z" fill="#212121"/>
</svg>
